<?xml version="1.0" encoding="iso-8859-1"?>
<!-- Generator: Adobe Illustrator 23.0.2, SVG Export Plug-In . SVG Version: 6.00 Build 0)  -->
<svg version="1.1" xmlns="http://www.w3.org/2000/svg" xmlns:xlink="http://www.w3.org/1999/xlink" x="0px" y="0px"
	 viewBox="0 0 500 421" style="enable-background:new 0 0 500 421;" xml:space="preserve">
<g id="BACKGROUND">
</g>
<g id="DESIGNED_BY_FREEPIK">
	<g>
		<path style="fill:#2A94F4;" d="M227.121,341.454c0,0,7.318-49.475,51.657-57.083c44.338-7.604,38.975-70.244,99.555-67.754
			c60.581,2.495,48.097,60.773,72.204,73.86c24.106,13.091,35.298,50.977,35.298,50.977H227.121z"/>
		<path style="fill:#2A94F4;" d="M234.693,341.454c0,0,0-40.117-47.544-54.245c-47.545-14.127-36.225-87.711-95.657-76.391
			c-59.431,11.32-30.564,86.6-53.77,103.014c-23.206,16.414-18.113,27.621-18.113,27.621H234.693z"/>
		<g>
			<path style="fill:#D3D3D3;" d="M467.594,341.673l-1.796,0.032l32.58-116.783C508.544,229.005,467.594,341.673,467.594,341.673z"
				/>
			<path style="fill:#D3D3D3;" d="M455.79,341.879l-31.057-88.793c8.048-0.392,18.457,34.324,23.304,52.33
				c1.631,6.498,2.709,10.532,2.709,10.532s-1.016-4.245-2.709-10.532c-6.522-26.012-21.913-91.674-12.709-97.904l24.242,134.302
				L455.79,341.879z"/>
			<path style="fill:#D3D3D3;" d="M463.415,341.746l2.768-158.633c11.217,7.592,1.411,137.736,1.411,137.736
				s19.077-93.503,29.728-96.002l-32.607,116.875L463.415,341.746z"/>
			<path style="fill:#9DADEC;" d="M448.036,305.416c1.694,6.286,2.709,10.532,2.709,10.532S449.668,311.914,448.036,305.416z"/>
			<path style="fill:#D3D3D3;" d="M460.624,341.796l-24.31-134.68c12.716-2.211,24.344,113.733,24.344,113.733
				s-8.425-138.091,4.459-138.091c0.011,0,0.021,0.004,0.033,0.004l-2.775,159.003L460.624,341.796z"/>
			<path style="fill:#D3D3D3;" d="M451.242,341.956c0,0-38.653-82.637-27.751-88.526c0.075-0.04,0.151-0.063,0.226-0.097
				l30.977,88.566L451.242,341.956z"/>
			<path style="fill:#CCE9FF;" d="M464.714,341.721l32.607-116.875c0.341-0.083,0.673-0.07,0.996,0.043
				c0.022,0.006,0.039,0.026,0.061,0.032l-32.58,116.783L464.714,341.721z"/>
			<path style="fill:#CCE9FF;" d="M462.375,341.764l2.775-159.003c0.363,0.007,0.707,0.13,1.034,0.351l-2.768,158.633
				L462.375,341.764z"/>
			<path style="fill:#CCE9FF;" d="M459.57,341.815l-24.242-134.302c0.175-0.117,0.358-0.216,0.552-0.292
				c0.145-0.054,0.289-0.076,0.434-0.104l24.31,134.68L459.57,341.815z"/>
			<path style="fill:#CCE9FF;" d="M454.694,341.899l-30.977-88.566c0.334-0.149,0.673-0.23,1.016-0.246l31.057,88.793
				L454.694,341.899z"/>
		</g>
		<g>
			<path style="fill:#D3D3D3;" d="M44.864,341.796l-24.309-134.68c12.716-2.209,24.344,113.733,24.344,113.733
				s-8.424-138.091,4.46-138.091c0.011,0,0.021,0.004,0.032,0.004l-2.773,159.003L44.864,341.796z"/>
			<path style="fill:#D3D3D3;" d="M40.03,341.879L8.975,253.086c8.046-0.394,18.455,34.324,23.305,52.33
				c1.63,6.498,2.707,10.532,2.707,10.532s-1.015-4.245-2.707-10.532c-6.523-26.012-21.914-91.677-12.709-97.904l24.242,134.302
				L40.03,341.879z"/>
			<path style="fill:#9DADEC;" d="M32.28,305.416c1.693,6.286,2.707,10.532,2.707,10.532S33.91,311.914,32.28,305.416z"/>
			<path style="fill:#D3D3D3;" d="M35.483,341.956c0,0-38.651-82.637-27.749-88.526c0.075-0.04,0.15-0.063,0.225-0.099
				l30.979,88.568L35.483,341.956z"/>
			<path style="fill:#D3D3D3;" d="M51.836,341.673l-1.796,0.032l32.58-116.783C92.785,229.005,51.836,341.673,51.836,341.673z"/>
			<path style="fill:#D3D3D3;" d="M47.658,341.746l2.769-158.633c11.216,7.592,1.41,137.736,1.41,137.736
				s19.076-93.503,29.727-96.002L48.957,341.721L47.658,341.746z"/>
			<path style="fill:#CCE9FF;" d="M48.957,341.721l32.607-116.875c0.341-0.083,0.673-0.07,0.995,0.043
				c0.022,0.006,0.04,0.026,0.062,0.032l-32.58,116.783L48.957,341.721z"/>
			<path style="fill:#CCE9FF;" d="M46.617,341.764l2.773-159.003c0.364,0.007,0.708,0.13,1.036,0.351l-2.769,158.633L46.617,341.764
				z"/>
			<path style="fill:#CCE9FF;" d="M43.812,341.815L19.571,207.512c0.175-0.117,0.357-0.216,0.552-0.292
				c0.144-0.054,0.288-0.079,0.432-0.104l24.309,134.68L43.812,341.815z"/>
			<path style="fill:#CCE9FF;" d="M38.938,341.899L7.959,253.331c0.334-0.148,0.673-0.229,1.016-0.245l31.055,88.793L38.938,341.899
				z"/>
		</g>
		<g>
			<path style="fill:#0B4870;" d="M429.222,234.977L404.1,340.811l-2.004-0.017l-6.162-31.055
				C395.621,297.198,397.694,260.884,429.222,234.977z"/>
			<path style="fill:#0B4870;" d="M429.643,341.032l-11.117-0.094l46.082-51.974C453.066,330.01,429.643,341.032,429.643,341.032z"
				/>
			<path style="fill:#0B4870;" d="M464.353,287.687l-47.206,53.239l-2.933-0.029l14.594-29.883
				C434.279,302.604,445.892,289.026,464.353,287.687z"/>
			<path style="fill:#0B4870;" d="M428.58,309.111l-15.518,31.778l-7.897-0.069l24.938-105.052
				C441.632,264.648,433.747,294.8,428.58,309.111z"/>
			<path style="fill:#0B4870;" d="M383.656,340.634c0,0-35.464-13.713-36.092-67.769l46.892,67.863L383.656,340.634z"/>
			<path style="fill:#0B4870;" d="M395.046,310.605l5.988,30.179l-5.306-0.044l-47.781-69.152
				C381.709,285.713,392.053,303.188,395.046,310.605z"/>
			<path style="fill:#2A94F4;" d="M464.99,287.631c-0.122,0.455-0.255,0.886-0.382,1.333l-46.082,51.974l-1.379-0.012l47.206-53.239
				C464.567,287.672,464.774,287.644,464.99,287.631z"/>
			<path style="fill:#2A94F4;" d="M429.643,234.627c0.16,0.379,0.308,0.761,0.459,1.141L405.165,340.82l-1.066-0.009l25.122-105.834
				C429.365,234.863,429.501,234.744,429.643,234.627z"/>
			<path style="fill:#2A94F4;" d="M347.946,271.587l47.781,69.152l-1.272-0.013l-46.892-67.863c-0.006-0.481-0.014-0.959-0.014-1.45
				C347.685,271.471,347.811,271.532,347.946,271.587z"/>
			<path style="fill:#577BC2;" d="M425.431,316.894c-0.222,0.479-0.348,0.734-0.348,0.734S425.199,317.366,425.431,316.894z"/>
			<path style="fill:#577BC2;" d="M425.431,316.894c-0.232,0.472-0.348,0.734-0.348,0.734S425.209,317.374,425.431,316.894
				c0.523-1.065,1.639-3.209,3.377-5.88l-14.594,29.883l-1.152-0.009l15.518-31.778
				C427.189,312.965,425.994,315.673,425.431,316.894z"/>
			<path style="fill:#577BC2;" d="M396.198,314.209c0,0-0.193-1.626-0.264-4.47l6.162,31.055l-1.062-0.01l-5.988-30.179
				C395.961,312.869,396.198,314.209,396.198,314.209z"/>
		</g>
		<g>
			<path style="fill:#0B4870;" d="M91.275,318.088l-5.529,24.355h-2.74L66.928,233.157
				C95.109,261.552,93.739,300.384,91.275,318.088z"/>
			<path style="fill:#0B4870;" d="M129.264,268.077l-41.162,74.366H86.81l6.1-26.867C97.74,301.63,108.412,279.129,129.264,268.077z
				"/>
			<path style="fill:#0B4870;" d="M95.447,342.443h-6.158l40.836-73.775C129.707,325.794,95.447,342.443,95.447,342.443z"/>
			<path style="fill:#0B4870;" d="M63.238,342.443c0,0-28.031-13.075-40.895-56.614l45.489,56.614H63.238z"/>
			<path style="fill:#0B4870;" d="M62.595,319.651l8.513,22.792h-1.944l-46.596-57.992
				C44.718,291.371,56.904,308.736,62.595,319.651z"/>
			<path style="fill:#0B4870;" d="M66.055,234.376l15.899,108.067h-9.734l-8.526-22.828
				C58.996,302.788,51.856,266.386,66.055,234.376z"/>
			<path style="fill:#2A94F4;" d="M130.135,267.617c0,0.353-0.007,0.7-0.009,1.051l-40.836,73.775h-1.188l41.162-74.366
				C129.552,267.923,129.842,267.767,130.135,267.617z"/>
			<path style="fill:#2A94F4;" d="M66.706,232.929c0.076,0.076,0.146,0.155,0.222,0.228l16.078,109.286h-1.052L66.055,234.376
				C66.269,233.895,66.483,233.412,66.706,232.929z"/>
			<path style="fill:#2A94F4;" d="M22.568,284.451l46.596,57.992h-1.332l-45.489-56.614c-0.16-0.54-0.327-1.064-0.482-1.61
				C22.101,284.29,22.331,284.375,22.568,284.451z"/>
			<path style="fill:#577BC2;" d="M90.087,325.01c-0.405,1.633-0.586,2.566-0.586,2.566S89.742,326.67,90.087,325.01
				c0.527-2.117,1.433-5.419,2.823-9.434l-6.1,26.867h-1.064l5.529-24.355C90.865,321.026,90.426,323.379,90.087,325.01z"/>
			<path style="fill:#577BC2;" d="M90.087,325.01c-0.345,1.66-0.586,2.566-0.586,2.566S89.682,326.643,90.087,325.01z"/>
			<path style="fill:#577BC2;" d="M66.048,327.231c0.412,1.194,0.658,1.831,0.658,1.831S66.491,328.389,66.048,327.231
				c-0.553-1.603-1.404-4.21-2.354-7.616l8.526,22.828h-1.111l-8.513-22.792C64.294,322.904,65.413,325.575,66.048,327.231z"/>
			<path style="fill:#577BC2;" d="M66.048,327.231c0.444,1.158,0.658,1.831,0.658,1.831S66.459,328.425,66.048,327.231z"/>
		</g>
		<path style="fill:#CFE6FD;" d="M249.807,311.907c175.807,0,249.807,29.027,249.807,29.027s-74,12.199-249.807,12.199
			C73.999,353.133,0,340.934,0,340.934S73.999,311.907,249.807,311.907z"/>
		<g>
			<path style="fill:#0B4870;" d="M217.561,332.535c0,0-6.351,3.919-11.22,4.334c-4.869,0.415-7.599,1.039-7.955,4.245
				c-0.356,3.205,13.12,2.167,15.435,1.692c2.316-0.475,12.823,0.415,14.249-0.475c1.425-0.89-0.119-9.379-0.713-10.626
				C226.764,330.457,217.561,332.535,217.561,332.535z"/>
			<path style="fill:#D3D3D3;" d="M217.849,329.587l-0.019,2.933c0,0,6.833,1.019,8.888-0.806l0.263-2.74L217.849,329.587z"/>
			<path style="fill:#0B4870;" d="M250.508,331.628c0,0-3.888,4.595-7.937,5.649c-4.049,1.055-8.562,3.037-8.52,5.609
				c0.043,2.573,13.328,2.826,18.136,0.507c4.808-2.32,7.592-2.921,8.309-4.876c0.717-1.958-1.128-7.081-1.095-7.698
				C259.442,330.056,250.508,331.628,250.508,331.628z"/>
			<path style="fill:#D3D3D3;" d="M250.426,329.409c0,0,0.058,2.624,0.139,2.665c0.079,0.043,8.179,0.817,8.709-0.809
				c0.464-1.423,0.405-3.107,0.405-3.107L250.426,329.409z"/>
			<path style="fill:#0B4870;" d="M229.19,221.716c0,0-20.392,34.42-24.702,42.591c-3.991,7.573,2.251,24.056,3.212,29.515
				c1.003,5.704,10.501,33.849,9.932,35.841c-0.57,1.992,10.485-0.69,10.485-0.69s-6.424-49.934-7.088-54.964
				c-0.664-5.03,22.037-36.557,23.367-34.565c1.327,1.992,2.096,37.024,2.76,42.525c0.664,5.505,2.818,47.269,2.818,47.269
				s9.867,1.615,12.049-1.896c0,0,0.569-43.935,0.665-47.826c0.094-3.892,5.271-42.463,0.475-60.076
				C260.626,210.136,229.19,221.716,229.19,221.716z"/>
			<path style="fill:#514E58;" d="M253.156,133.008l-8.943,8.423l-0.107,0.106l-3.394,3.195l-1.663-1.623l-3.766-3.647l-0.439-0.439
				l1.463-1.61l1.105-1.211l0.319-0.359l1.398-1.543l0.319-0.346l1.331-1.477c0,0,0,0,0-0.013l4.991-5.47l0.292-0.321l0.839,0.76
				l0.386,0.332L253.156,133.008z"/>
			<polygon style="fill:#3E3B42;" points="241.057,143.507 251.824,133.363 245.693,127.877 235.982,138.565 			"/>
			<path style="fill:#F1B99E;" d="M233.651,144.921c0,0,1.874-0.449,1.321-2.695c-0.552-2.243,0.312-2.758,0.312-2.758l6.527,6.326
				c0,0-3.17,3.057-4.132,3.179C236.717,149.093,232.684,146.145,233.651,144.921z"/>
			<path style="fill:#F1B99E;" d="M241.811,145.794c0,0,3.971-2.542,4.345-2.923c0.375-0.379,2.151-2.077,2.878-3.082
				c0.727-1.006-2.171-0.758-3.012,0.285c-0.84,1.045-1.594,1.34-2.178,1.572c-0.583,0.229-4.101,0.437-4.799,1.469
				C238.349,144.147,241.811,145.794,241.811,145.794z"/>
			<path style="fill:#F1B99E;" d="M236.512,138.107c0,0,0.474,0.621,0.854-0.099c0.38-0.721,0.349-2.38-0.615-1.981
				C235.784,136.426,236.512,138.107,236.512,138.107z"/>
			<path style="fill:#F1B99E;" d="M237.735,135.91c0,0,0.166,1.227,0.766,0.674c0.598-0.552,1.198-2.606,0.156-2.553
				C237.612,134.082,237.735,135.91,237.735,135.91z"/>
			<path style="fill:#F1B99E;" d="M239.442,134.119c0,0-0.003,1.48,0.691,1.056c0.522-0.322,1.272-2.986,0.23-2.934
				C239.32,132.293,239.442,134.119,239.442,134.119z"/>
			<path style="fill:#F1B99E;" d="M295.212,220.086c0,0,2.317,1.643,3.708,1.343c1.392-0.302,3.348-0.054,3.958,0.056
				c0.816,0.145,3.608-0.296,3.296,0.686c-0.313,0.982-4.593,0.93-5.514,1.088c-0.921,0.158,1.927,2.596,2.017,3.468
				c0.091,0.87-5.128,5.526-6.846,3.617c-1.718-1.908-2.049-5.156-2.43-5.428c-0.382-0.272-1.316-1.337-1.316-1.337L295.212,220.086
				z"/>
			<path style="fill:#F1B99E;" d="M302.403,226.178c0,0,4.794,6.216,4.704,6.922c-0.089,0.704-0.501,0.967-0.977,0.409
				c-0.477-0.563-4.837-5.863-4.837-5.863s4.217,8.396,4.28,8.973c0.036,0.338-0.735,0.886-1.023,0.611
				c-0.288-0.273-5.015-8.313-5.015-8.313s3.922,7.845,3.817,8.36c-0.093,0.449-0.917,0.804-1.253,0.245
				c-0.337-0.557-4.45-7.6-4.45-7.6s2.444,5.921,2.082,6.339c-0.222,0.255-0.867,0.754-1.444-0.796
				c-0.576-1.553-2.37-5.035-2.37-5.035L302.403,226.178z"/>
			<path style="fill:#FFE3CA;" d="M298.666,220.878c0,0-4.807,3.799-6.706,3.291c-1.898-0.507-17.715-22.265-18.979-26.064
				c-1.264-3.796-2.658-15.057-2.658-15.057s-4.083,11.31-4.622,16.752c-0.54,5.439-2.762,15.405-2.762,15.405l-32.429,1.965
				c0,0-1.267-1.984-0.717-6.199c0.547-4.219,2.03-14.277,1.08-19.686c-0.948-5.407-0.127-14.71-0.127-14.71
				s-13.564,4.069-15.145,4.511c-1.583,0.444-5.693-2.024-6.77-4.556c-1.074-2.529,24.672-33.023,24.672-33.023l5.934,5.088
				l-7.313,12.508c0.246-0.166,1.786-0.78,3.852-1.57c5.045-1.925,13.218-4.892,13.218-4.892s11.514-0.19,12.4-0.061
				c0.885,0.126,12.273,5.694,13.917,7.085c1.647,1.39,6.2,30.113,7.085,32.011C283.482,195.574,298.666,220.878,298.666,220.878z"
				/>
			<path style="fill:#0E538C;" d="M230.51,217.168c0,0-0.809,0.827-1.32,4.549c0,0,30.651-1.134,33.972-2.274
				c0,0,0.452-4.114-0.224-4.238C262.196,215.066,230.51,217.168,230.51,217.168z"/>
			<path style="fill:#F1B99E;" d="M261.594,154.579c-0.317,1.391-10.945,9.551-10.945,9.551s-2.415-9.099-1.455-9.49
				c0.376-0.152,0.58-0.864,0.69-1.669c0.103-0.769,0.121-1.623,0.119-2.168c0-0.338-0.009-0.557-0.009-0.557
				s1.428-1.285,3.237-2.81c3.161-2.668,7.485-6.059,7.374-4.583c-0.005,0.079-0.024,0.172-0.055,0.278
				C259.577,146.4,261.594,154.579,261.594,154.579z"/>
			<polygon style="fill:#F2F2F2;" points="249.491,154.359 246.478,155.717 247.802,167.863 250.648,164.131 			"/>
			<polygon style="fill:#F2F2F2;" points="261.446,153.951 250.648,164.131 252.043,168.264 264.982,155.986 			"/>
			<path style="fill:#0E538C;" d="M255.941,215.384c0,0,0.332,4.232,0.303,5.326l1.428-0.169c0,0-0.036-4.453-0.206-5.213
				L255.941,215.384z"/>
			<path style="fill:#0E538C;" d="M233.082,216.882c0,0-0.834,3.756-0.961,5.19l1.502-0.074c0,0,0.681-4.72,0.89-5.203
				L233.082,216.882z"/>
			<g>
				<path style="fill:#FCD2B1;" d="M242.264,216.167c-0.007-0.037-0.019-1.337,0.122-6.786c0.057-2.214,0.245-8.246,1.021-11.87
					c1.149-5.356,1.229-7.848,0.815-12.464c-0.697-7.752,5.314-17.279,5.342-17.382l0.776,0.2c-0.026,0.102-5.707,9.46-5.023,17.07
					c0.425,4.74,0.272,7.699-0.888,13.112c-0.736,3.432-0.845,9.145-0.9,11.286c-0.136,5.282-0.202,6.679-0.195,6.716
					L242.264,216.167z"/>
			</g>
			<path style="fill:#FFBE55;" d="M251.333,168.152c0,0-0.811,14.77-10.365,16.92c-9.553,2.151-22.268,10.438-26.001,15.057
				l-4.556,6.01v-6.707c0,0,1.899-11.024,30.178-15.603c0,0,8.113-0.535,7.817-16.035
				C248.406,167.795,251.388,167.507,251.333,168.152z"/>
			<path style="fill:#A77860;" d="M258.619,146.278c0,0,0,0-0.001,0.001c-0.021,0.024-0.458,0.581-1.193,1.368
				c-1.558,1.669-4.453,4.385-7.541,5.324c0.103-0.769,0.121-1.623,0.119-2.168c-0.305-0.03-0.608-0.089-0.908-0.183
				c0.935-1.367,2.24-2.778,2.24-2.778l1.896-0.405L258.619,146.278z"/>
			<path style="fill:#F1B99E;" d="M262.885,133.566c-0.253,1.251-0.945,2.449-1.717,3.328c0.306,1.915,0.014,4.91,0.014,4.91
				c-0.2,0.361-0.386,0.72-0.572,1.052c-0.945,1.676-1.73,2.941-1.996,3.421c0,0.013-0.014,0.026-0.027,0.04
				c-0.16,0.318-0.585,0.799-1.158,1.331c-1.65,1.516-4.658,3.459-7.426,3.153c-0.306-0.027-0.612-0.08-0.904-0.186
				c-1.105-0.334-2.383-0.958-3.009-2.436c-0.612-1.477-1.064-2.887-1.397-4.258v-0.014c-0.2-0.825-0.346-1.636-0.466-2.422
				c0-0.026-0.013-0.039-0.013-0.053c-0.04-0.279-0.067-0.545-0.094-0.811c-0.731-6.388,1.092-11.085,1.771-12.564
				c0.146-0.319,0.24-0.492,0.24-0.492s0.279-0.053,0.771-0.132l0.386,0.332c2.156,0.2,4.312-0.493,8.212,0.08
				c4.605,0.664,0.079,8.677,0.079,8.677l2.583-0.253c0-0.704,0.106-1.503,0.239-2.236
				C258.839,131.584,263.404,130.984,262.885,133.566z"/>
			<path style="fill:#515154;" d="M246.901,127.432l0.386,0.332c-0.372-0.027-0.759-0.093-1.157-0.201c0,0-0.147-0.212-0.359-0.571
				l0.292-0.321L246.901,127.432z"/>
			<path style="fill:#515154;" d="M262.885,133.566c-0.253,1.251-0.945,2.449-1.717,3.328c-0.106-0.693-0.306-1.238-0.612-1.464
				c-1.185-0.839-2.395,0.837-2.395,0.837c0-0.704,0.106-1.503,0.239-2.236C258.839,131.584,263.404,130.984,262.885,133.566z"/>
			<path style="fill:#F1B99E;" d="M262.885,133.566c-0.253,1.251-0.945,2.449-1.717,3.328c-0.799,0.918-1.677,1.476-2.196,1.397
				c-0.613-0.106-0.811-0.958-0.811-2.024c0-0.704,0.106-1.503,0.239-2.236C258.839,131.584,263.404,130.984,262.885,133.566z"/>
			<path style="fill:#FCD2B1;" d="M248.012,167.587c0,0,1.816,1.567,3.895,0.276c0,0-0.784-3.605-1.259-3.733
				C250.173,164.006,247.78,166.932,248.012,167.587z"/>
			<path style="fill:#FFBE55;" d="M246.053,215.914c0,0-4.512,0.177-6.018,0.428l0.192,5.001l6.109-0.364L246.053,215.914z"/>
			<path style="fill:#D5BBAF;" d="M235.975,159.533l-10.188,11.717l6.336-10.147C232.37,160.937,233.91,160.323,235.975,159.533z"/>
		</g>
		<path style="fill:#CCE9FF;" d="M252.837,118.528c-0.026,0.187-0.053,0.359-0.094,0.533c-0.185,0-0.359,0.013-0.518,0.013
			C252.41,118.887,252.61,118.702,252.837,118.528z"/>
		<path style="fill:#CCE9FF;" d="M252.837,118.528c-0.026,0.187-0.053,0.359-0.094,0.533c-0.185,0-0.359,0.013-0.518,0.013
			C252.41,118.887,252.61,118.702,252.837,118.528z"/>
		<path style="fill:#0B4870;" d="M261.208,141.764c-0.014,0.027-0.027,0.04-0.027,0.04s0.292-2.994-0.014-4.91
			c0.772-0.879,1.464-2.077,1.717-3.328c0.519-2.582-4.046-1.982-4.485,0.465c-0.133,0.733-0.239,1.531-0.239,2.236l-2.583,0.253
			c0,0,4.526-8.013-0.079-8.677c-3.9-0.573-6.055,0.12-8.212-0.08l-0.386-0.332l-0.839-0.76l-0.292,0.321
			c-0.639-1.065-1.943-3.46-2.05-5.563c0-0.066-0.014-0.146,0-0.212c-0.027-0.374-0.027-0.707-0.027-1.012
			c-0.027-0.04-0.04-0.08-0.053-0.12c0.24-2.555,3.287-4.577,7.014-4.577c0.572,0,1.144,0.053,1.677,0.146
			c0.346,0.678,0.546,1.437,0.546,2.248c0,0.213-0.014,0.427-0.04,0.626c-0.227,0.174-0.427,0.359-0.612,0.545
			c0.159,0,0.333-0.013,0.518-0.013c0.041-0.173,0.067-0.345,0.094-0.533c0.798-0.613,1.823-1.091,3.007-1.397
			c0.865-0.226,1.823-0.346,2.822-0.346c4.192,0,7.599,2.183,7.599,4.871v0.014c0.532,0.744,0.972,1.889,1.118,3.646
			C268.088,133.712,261.687,141.232,261.208,141.764z"/>
		<path style="fill:#0B4870;" d="M243.694,120.205c0,0.305,0,0.638,0.027,1.012c-0.08-0.255-0.107-0.52-0.107-0.786
			c0-0.119,0-0.226,0.026-0.346C243.654,120.125,243.667,120.165,243.694,120.205z"/>
		<path style="fill:#0B4870;" d="M252.225,119.073c0.185-0.186,0.385-0.371,0.612-0.545c-0.026,0.187-0.053,0.359-0.094,0.533
			C252.558,119.06,252.384,119.073,252.225,119.073z"/>
		<path style="fill:#0B4870;" d="M255.844,117.131c-1.184,0.306-2.209,0.784-3.007,1.397c0.027-0.199,0.04-0.412,0.04-0.626
			c0-0.812-0.2-1.57-0.546-2.248C253.715,115.893,254.926,116.412,255.844,117.131z"/>
		<g>
			<path style="fill:#FFBE55;" d="M167.082,127.327c3.049,0.363,5.332,1.997,6.85,4.901c1.536,2.938,1.835,5.631,0.899,8.075
				c-0.936,2.446-2.777,4.58-5.522,6.404l2.135,4.947l-6.179,3.23l-4.304-7.492c3.032-2.014,5.005-3.832,5.923-5.449
				c0.916-1.62,0.96-3.222,0.13-4.809c-0.688-1.317-1.67-2.104-2.944-2.363c-1.274-0.258-2.791,0.073-4.546,0.99
				c-1.756,0.917-2.923,2.163-3.499,3.731c-0.577,1.57-0.457,3.302,0.362,5.196l-8.015,0.708c-0.973-2.931-0.769-5.768,0.614-8.512
				c1.381-2.744,4.032-5.14,7.949-7.188C160.649,127.755,164.031,126.967,167.082,127.327z M173.823,155.956
				c1.146,0.303,2.038,1.062,2.674,2.279c0.635,1.217,0.751,2.382,0.345,3.497c-0.407,1.115-1.285,2.025-2.635,2.731
				c-1.351,0.707-2.591,0.903-3.721,0.593c-1.131-0.312-2.014-1.075-2.649-2.292c-0.635-1.216-0.758-2.377-0.371-3.484
				c0.389-1.106,1.26-2.013,2.611-2.72C171.426,155.855,172.675,155.653,173.823,155.956z"/>
		</g>
		<g>
			<path style="fill:#FFBE55;" d="M341.244,122.342c2.486,2.999,3.159,6.498,2.016,10.496c-1.155,4.045-3.233,6.783-6.231,8.214
				c-2.999,1.431-6.558,1.783-10.675,1.058l-2.362,6.418l-8.508-2.432l2.591-10.649c4.549,0.799,7.953,0.852,10.212,0.165
				c2.257-0.687,3.699-2.124,4.324-4.31c0.518-1.812,0.303-3.395-0.643-4.746c-0.946-1.353-2.629-2.373-5.045-3.064
				c-2.418-0.691-4.579-0.565-6.481,0.375c-1.903,0.939-3.306,2.638-4.209,5.094l-7.99-6.356c1.667-3.547,4.335-5.976,8.005-7.292
				c3.668-1.314,8.2-1.201,13.594,0.341C334.955,117.114,338.755,119.345,341.244,122.342z M322.419,154.564
				c0.788,1.282,0.945,2.761,0.466,4.434c-0.478,1.673-1.391,2.845-2.739,3.517c-1.349,0.67-2.954,0.74-4.813,0.209
				c-1.859-0.533-3.172-1.436-3.939-2.711c-0.767-1.274-0.912-2.75-0.434-4.423c0.478-1.673,1.38-2.848,2.705-3.528
				c1.325-0.676,2.917-0.75,4.777-0.218C320.302,152.375,321.627,153.283,322.419,154.564z"/>
		</g>
		<g>
			<path style="fill:#FFBE55;" d="M247.117,71.369c1.097,1.323,1.395,2.866,0.891,4.629c-0.51,1.785-1.427,2.993-2.75,3.624
				c-1.323,0.633-2.894,0.787-4.71,0.468l-1.042,2.83l-3.753-1.073l1.144-4.698c2.007,0.354,3.508,0.376,4.505,0.073
				c0.995-0.302,1.632-0.936,1.907-1.901c0.228-0.8,0.134-1.497-0.284-2.094c-0.418-0.595-1.159-1.046-2.224-1.351
				c-1.069-0.305-2.02-0.249-2.86,0.165c-0.84,0.414-1.46,1.164-1.856,2.249l-3.526-2.805c0.736-1.564,1.914-2.636,3.531-3.216
				c1.618-0.58,3.618-0.531,5.999,0.15C244.344,69.062,246.02,70.045,247.117,71.369z M238.811,85.583
				c0.35,0.565,0.417,1.218,0.206,1.957c-0.21,0.739-0.612,1.255-1.208,1.55c-0.595,0.296-1.303,0.328-2.123,0.093
				c-0.82-0.235-1.4-0.633-1.738-1.197c-0.339-0.561-0.402-1.212-0.192-1.951c0.211-0.737,0.609-1.257,1.194-1.556
				c0.585-0.298,1.287-0.331,2.108-0.096C237.879,84.619,238.463,85.018,238.811,85.583z"/>
		</g>
	</g>
</g>
</svg>
