<svg id="Layer_1" data-name="Layer 1" xmlns="http://www.w3.org/2000/svg" xmlns:xlink="http://www.w3.org/1999/xlink" viewBox="0 0 609.98 593.41"><defs><linearGradient id="linear-gradient" x1="285.52" y1="967.73" x2="306.45" y2="237.53" gradientUnits="userSpaceOnUse"><stop offset="0.01"/><stop offset="1" stop-opacity="0"/></linearGradient><linearGradient id="linear-gradient-2" x1="306.75" y1="362.33" x2="320.06" y2="534.16" xlink:href="#linear-gradient"/><linearGradient id="linear-gradient-3" x1="409.19" y1="813.55" x2="404.89" y2="-75.61" gradientUnits="userSpaceOnUse"><stop offset="0.02" stop-color="#fff" stop-opacity="0"/><stop offset="0.58" stop-color="#fff" stop-opacity="0.39"/><stop offset="0.68" stop-color="#fff" stop-opacity="0.68"/><stop offset="1" stop-color="#fff"/></linearGradient><linearGradient id="linear-gradient-4" x1="536.38" y1="207.8" x2="524.88" y2="380.23" xlink:href="#linear-gradient"/><linearGradient id="linear-gradient-5" x1="264.05" y1="93.81" x2="272.95" y2="254.79" xlink:href="#linear-gradient"/><linearGradient id="linear-gradient-6" x1="514.8" y1="224.51" x2="566.92" y2="224.51" gradientUnits="userSpaceOnUse"><stop offset="0" stop-color="#ecc4d7"/><stop offset="0.42" stop-color="#efd4d1"/><stop offset="1" stop-color="#f2eac9"/></linearGradient><linearGradient id="linear-gradient-7" x1="309.42" y1="27.65" x2="310.32" y2="68.85" gradientUnits="userSpaceOnUse"><stop offset="0" stop-color="#68e1fd"/><stop offset="1" stop-color="#fff"/></linearGradient><linearGradient id="linear-gradient-8" x1="331.57" y1="122.71" x2="344.78" y2="131.21" xlink:href="#linear-gradient-6"/><linearGradient id="linear-gradient-9" x1="330.53" y1="175.18" x2="252.53" y2="204.64" gradientUnits="userSpaceOnUse"><stop offset="0" stop-color="#68e1fd"/><stop offset="0.2" stop-color="#5db4cf"/><stop offset="0.46" stop-color="#50819b"/><stop offset="0.69" stop-color="#475c76"/><stop offset="0.87" stop-color="#41455e"/><stop offset="0.99" stop-color="#3f3d56"/></linearGradient><linearGradient id="linear-gradient-10" x1="376.46" y1="128.57" x2="422.39" y2="128.57" xlink:href="#linear-gradient-6"/><linearGradient id="linear-gradient-11" x1="299.26" y1="181.26" x2="310.53" y2="181.26" xlink:href="#linear-gradient-6"/><linearGradient id="linear-gradient-12" x1="414.53" y1="218.06" x2="450.84" y2="218.06" xlink:href="#linear-gradient-6"/><linearGradient id="linear-gradient-13" x1="156.54" y1="567.15" x2="667.49" y2="567.15" gradientUnits="userSpaceOnUse"><stop offset="0" stop-color="#183866"/><stop offset="1" stop-color="#1a7fc1"/></linearGradient><linearGradient id="linear-gradient-14" x1="343.29" y1="97.04" x2="348.07" y2="125.55" gradientUnits="userSpaceOnUse"><stop offset="0.2" stop-color="#ecc4d7"/><stop offset="0.37" stop-color="#f0dcce"/><stop offset="1" stop-color="#f2eac9"/></linearGradient><linearGradient id="linear-gradient-15" x1="467.92" y1="240.41" x2="495.89" y2="240.41" xlink:href="#linear-gradient-6"/><linearGradient id="linear-gradient-16" x1="201.95" y1="152" x2="198.77" y2="153.2" xlink:href="#linear-gradient-9"/><linearGradient id="linear-gradient-17" x1="366.5" y1="152.38" x2="354.85" y2="200.07" xlink:href="#linear-gradient-9"/><linearGradient id="linear-gradient-18" x1="485.48" y1="286.33" x2="629.9" y2="365.27" gradientUnits="userSpaceOnUse"><stop offset="0" stop-opacity="0"/><stop offset="0.99"/></linearGradient><linearGradient id="linear-gradient-19" x1="487.77" y1="254.19" x2="388.73" y2="283.14" xlink:href="#linear-gradient-6"/></defs><title>36. Online Worlds</title><path d="M238.63,77.77c-32.26,12.92-66.76,21.79-95.19,41.78S93.51,175,102.88,208.47c7.27,25.92,31.51,46.19,32.61,73.09.88,21.47-13.32,40.22-20.86,60.34-15.23,40.65-2.06,88,24.89,122s65.8,56.62,105.6,73.94A590.18,590.18,0,0,0,545,583c30.46-3.42,61.19-9.42,88.19-23.92s50.09-38.53,57.64-68.23c10.27-40.35-8.94-83.9,1.56-124.19,4.11-15.8,12.63-30.23,16.26-46.15,8.73-38.37-12.54-77.56-39.6-106.12s-60.46-50.92-85.2-81.52c-17.14-21.19-29.7-45.84-47.32-66.63C501.91,25.36,446,1.22,392.36,3.78,339.07,6.31,288.9,57.64,238.63,77.77Z" transform="translate(-100.66 -3.59)" fill="#68e1fd" opacity="0.18"/><rect x="118.11" y="37.54" width="373.77" height="501.74" rx="35.02" fill="#68e1fd"/><rect x="118.11" y="37.54" width="373.77" height="501.74" rx="35.02" fill="url(#linear-gradient)"/><path d="M409.2,382.64l-194.78-1.23a27.86,27.86,0,0,0-28,27.69l-.18,28.7a27.87,27.87,0,0,0,27.69,28.05L398.6,467a47.28,47.28,0,0,1,32.65,13.39l5.17,5,.29-46,.07-11,.11-17.72A27.86,27.86,0,0,0,409.2,382.64Z" transform="translate(-100.66 -3.59)" fill="url(#linear-gradient-2)"/><path d="M567.62,98.83V495.69a31.09,31.09,0,0,1-31.08,31.08H276.84a31.07,31.07,0,0,1-31.07-31.08V98.83a31.07,31.07,0,0,1,31.07-31.08h259.7A31.09,31.09,0,0,1,567.62,98.83Z" transform="translate(-100.66 -3.59)" fill="#68e1fd"/><path d="M567.62,98.83V495.69a31.09,31.09,0,0,1-31.08,31.08H276.84a31.07,31.07,0,0,1-31.07-31.08V98.83a31.07,31.07,0,0,1,31.07-31.08h259.7A31.09,31.09,0,0,1,567.62,98.83Z" transform="translate(-100.66 -3.59)" opacity="0.69" fill="url(#linear-gradient-3)"/><path d="M640.5,277v25.36A24.5,24.5,0,0,1,616.12,327H454.52a40.69,40.69,0,0,0-9.1,1,41.24,41.24,0,0,0-19.54,10.61L421.34,343V277a24.59,24.59,0,0,1,17-23.46,24.19,24.19,0,0,1,7.41-1.16h170.4A24.5,24.5,0,0,1,640.5,277Z" transform="translate(-100.66 -3.59)" fill="url(#linear-gradient-4)"/><path d="M376.46,157.14l4.15,64.28h-4.15L372,217.13c-7.58-7.27-19.12-9.87-29.61-9.87H183.51a24,24,0,0,1-24-24L161,157.14a24,24,0,0,1,24-24H352.5a23.92,23.92,0,0,1,19.81,10.49h0A23.82,23.82,0,0,1,376.46,157.14Z" transform="translate(-100.66 -3.59)" fill="url(#linear-gradient-5)"/><path d="M380.61,157.14v64.28l-4.47-4.29A40.65,40.65,0,0,0,348,205.8H189.11a24,24,0,0,1-24-24V157.14a24,24,0,0,1,24-24H356.64a23.94,23.94,0,0,1,19.82,10.49h0A23.82,23.82,0,0,1,380.61,157.14Z" transform="translate(-100.66 -3.59)" fill="#fff" style="isolation:isolate"/><path d="M640.5,274.94v24.69a24,24,0,0,1-24,24H457.65a40.67,40.67,0,0,0-28.15,11.33L425,339.22V274.94a23.95,23.95,0,0,1,24-24H616.53A24,24,0,0,1,640.5,274.94Z" transform="translate(-100.66 -3.59)" fill="#fff" style="isolation:isolate"/><path d="M464.76,246.06c-1-2-2.6-3.52-3.58-5.46-2.1-4.14-.87-9.28,1.61-13.2,1-1.63,2.3-3.2,2.67-5.09.43-2.22-.43-4.64.5-6.7.76-1.66,2.48-2.62,4-3.68,2.31-1.65,4.31-3.81,6.92-4.91s6.23-.7,7.51,1.84c2.41-1.19,5.46-.11,7.26,1.87s2.6,4.68,3.15,7.3a61.88,61.88,0,0,0,2.06,8.88c1.06,2.85,2.92,5.56,5.67,6.85,5.34,2.5,12.78-.74,17,3.42,2.16,2.15,2.93,5.95,5.86,6.77,1.51.42,3.15-.13,4.65.27,2.59.7,3.66,3.83,3.72,6.51a19.1,19.1,0,0,1-5.87,14.1c-1.86,1.77-4.24,3.42-4.62,6a17.74,17.74,0,0,0,.3,3.9,9,9,0,0,1-14.37,7.94c-2.12-1.58-3.91-4.23-6.55-4.11a7.12,7.12,0,0,0-3.2,1.28,22.79,22.79,0,0,1-6.81,3.15,7.78,7.78,0,0,1-7.05-1.62c-1.5-1.47-2.06-3.61-2.79-5.59-1.18-3.2-3.33-6.49-6.68-7.13-1.44-.27-2.93,0-4.37-.24C462,266.84,467.73,252.05,464.76,246.06Z" transform="translate(-100.66 -3.59)" fill="#3f3d56"/><path d="M542.92,212.45a45.71,45.71,0,0,0,5.44-12.5,15.73,15.73,0,0,1,2.5-5.14.87.87,0,0,1,1.57.6l-.4,4c2-2.32,4.37-6.57,7.72-10.1a.49.49,0,0,1,.8.52l-2.7,6.79a.27.27,0,0,0,.46.26l4-5.39c2.17-1.56,1.92.73,1.72,1.27l-2.61,5a.33.33,0,0,0,.52.38,36,36,0,0,1,3.63-3.12.84.84,0,0,1,1.2,1.11l-4,5.59c-.48.67-.89,1.06-.07,1l2.88-1.06c.86-.34.45,1.63-.3,2.16-4.19,3-5.89,5.34-8.79,7.83s-21.51,33.18-30,44.06c-3.09,3.95-9,6.58-11.39.22-1.79-4.82,3.7-9.33,6.34-12.82Q532.79,228.25,542.92,212.45Z" transform="translate(-100.66 -3.59)" fill="url(#linear-gradient-6)"/><path d="M413.23,382.64l-194.78-1.23a27.86,27.86,0,0,0-28,27.69l-.18,28.7a27.87,27.87,0,0,0,27.69,28.05L402.63,467a47.28,47.28,0,0,1,32.65,13.39l5.17,5,.29-46,.07-11,.11-17.72A27.86,27.86,0,0,0,413.23,382.64Z" transform="translate(-100.66 -3.59)" fill="#fff"/><rect x="275.3" y="50.77" width="69.38" height="5.96" rx="2.98" fill="url(#linear-gradient-7)"/><path d="M378.48,158.72c-5.28,2.28-6.21,1.92-11.86,2.91s-10.07.27-15.45-1.74c-3.69,11.26-7.61,23.56-8.61,35.36a78.7,78.7,0,0,1-1.71,10.55h-34c-.1-.76-.19-1.54-.27-2.35a174.48,174.48,0,0,1,.37-32.63,19.65,19.65,0,0,0,.17-2,6.85,6.85,0,0,0-.12-1.63,10.94,10.94,0,0,0-1.42-3.25c-1.35-2.37-4.61-6-6.42-8.63-.24-.36-.46-.7-.64-1,1.09-5,5.9-7.45,8.14-12a28.21,28.21,0,0,1,6.93-9.11,20.52,20.52,0,0,1,3-2.12c3.84-2.23,8.27-3.12,12.69-3.79.69-.11,1.37-.21,2.06-.3a18.12,18.12,0,0,0,9.71,3.46,12.84,12.84,0,0,1,3.28.35,9.57,9.57,0,0,1,2.52,1.44l1.34,1c2.46,1.75,4.92,3.52,7.38,5.28a37,37,0,0,0,5.43,3.42c6.17,2.92,8.72,2.65,15.5,1.79h0C377.29,148,378.09,154.31,378.48,158.72Z" transform="translate(-100.66 -3.59)" fill="#68e1fd"/><path d="M329.23,127c-1.77,1.63,3.38,7.26,5.25,8.78s4.71,1.51,7.08.81c1.58-.46,3.26-1.35,3.69-2.95a7.89,7.89,0,0,0-.31-3.39c-.43-2.35,0-4.82-.64-7.14a11.35,11.35,0,0,0-4.15-5.83c-1.85-1.45-6.84-5.3-7.87-1.45C331.16,119.93,333.37,123.16,329.23,127Z" transform="translate(-100.66 -3.59)" fill="url(#linear-gradient-8)"/><path d="M328.83,205.8h-21a24.9,24.9,0,0,0-1.29-2.35,2.38,2.38,0,0,0-.35-.43,7.36,7.36,0,0,1-1.85-3.48,44.2,44.2,0,0,1,1.25-28.3,7,7,0,0,1,1.49-2.44c1.08-1.15,2.3-1.71,3.45-3.83,2.27-4.17,6.6-11.28,8.74-15.51.85,8.21-2.34,15.82-2,24.06.17,4.8.35,9.68,2,14.2a27.57,27.57,0,0,0,6.34,9.93C326.7,198.84,328.28,202.77,328.83,205.8Z" transform="translate(-100.66 -3.59)" fill="url(#linear-gradient-9)"/><path d="M376.46,143.66s1.77,12.91,1.7,12.17,25.25-7.64,32.48-31.61a9.15,9.15,0,0,1,2-2.09c9-6.72,10.4-9.55,7.71-7.9a7.11,7.11,0,0,1-4.76,1.21,23,23,0,0,0,2.75-2.74c1.06-1.29,3.38-2.62,3.95-4.18a1.1,1.1,0,0,0,.1-.56.8.8,0,0,0-.85-.57,2.22,2.22,0,0,0-1,.4,36.54,36.54,0,0,0-3.88,2.78c-.77.63-2.89,1.48-2.16,0,1.14-2.35,3.67-3.91,4.34-6.43a1,1,0,0,0-.06-.87c-.26-.32-.78-.22-1.16-.05-1.37.62-5.5,6.29-6.51,6.16s1.09-6.06,1.17-7.2c0-.31,0-.68-.27-.83s-.6,0-.84.23c-2.64,2.18-3,6.05-4.7,9a2.17,2.17,0,0,1-1.15,1.12c-1.09.32-2-.92-3.11-1.17a.91.91,0,0,0-.61,0c-.61.27-.52,1.22-.15,1.78C406.44,120,393.71,138.33,376.46,143.66Z" transform="translate(-100.66 -3.59)" fill="url(#linear-gradient-10)"/><path d="M302,156.72s-5.25,42.26-1.23,49.08h8.73a132.06,132.06,0,0,1,1-40.83S309.73,158.32,302,156.72Z" transform="translate(-100.66 -3.59)" fill="url(#linear-gradient-11)"/><rect x="76.94" y="150.68" width="102.94" height="11.25" rx="5.62" fill="#68e1fd" opacity="0.32"/><rect x="76.94" y="173.71" width="102.94" height="11.25" rx="5.62" fill="#68e1fd" opacity="0.32"/><path d="M619.7,279.18H528a5.63,5.63,0,0,1-5.63-5.62h0a5.62,5.62,0,0,1,5.63-5.62H619.7a5.62,5.62,0,0,1,5.62,5.62h0A5.62,5.62,0,0,1,619.7,279.18Z" transform="translate(-100.66 -3.59)" fill="#68e1fd" opacity="0.32"/><path d="M619.7,302.21H528a5.63,5.63,0,0,1-5.63-5.62h0A5.62,5.62,0,0,1,528,291H619.7a5.62,5.62,0,0,1,5.62,5.62h0A5.62,5.62,0,0,1,619.7,302.21Z" transform="translate(-100.66 -3.59)" fill="#68e1fd" opacity="0.32"/><path d="M361.42,411.09H269.73a5.63,5.63,0,0,1-5.63-5.62h0a5.63,5.63,0,0,1,5.63-5.63h91.69a5.62,5.62,0,0,1,5.62,5.63h0A5.62,5.62,0,0,1,361.42,411.09Z" transform="translate(-100.66 -3.59)" fill="#68e1fd" opacity="0.32"/><rect x="163.45" y="421.95" width="102.94" height="11.25" rx="5.62" fill="#68e1fd" opacity="0.32"/><path d="M522,259.85a12.08,12.08,0,0,1-3.29,4.92c-2.79,2.55-6.33,4.15-9.08,6.74-6.1,5.74-7.11,14.91-7.75,23.26l-2.19,28.83h-42a40.59,40.59,0,0,0-8.95,1q.81-11.6,1.4-23.2c.74-14.53.77-30.51-8.49-41.74a6.57,6.57,0,0,1-1.9-3.39c-.12-1.49.89-2.81,1.84-4,.06-.06.1-.12.16-.19l6.18-7.55c.75-.92,1.64-1.91,2.82-2a4,4,0,0,1,2.67,1.26,51,51,0,0,1,6.48,7.13c1.27,1.6,2.51,3.22,3.83,4.78,6.23,7.36,15.74,12.54,24.72,6.64A176.36,176.36,0,0,1,507.7,251a96.35,96.35,0,0,1,9.51-4c-.19,1.55.64,2.81,1.67,4a20.81,20.81,0,0,1,2.9,3.73A6.71,6.71,0,0,1,522,259.85Z" transform="translate(-100.66 -3.59)" fill="#68e1fd"/><path d="M448.76,251.74a16.49,16.49,0,0,0,1.8-11.32,49.15,49.15,0,0,0-3.66-11.08q-5.28-12.51-10.54-25a32.33,32.33,0,0,1-2.19-6.36c-.73-3.74-.14-7.6.45-11.36a2.75,2.75,0,0,0-2,.2,5.1,5.1,0,0,1-2.74,5,27.88,27.88,0,0,0-5-10.34q.39,4.19.58,8.4-3.3-3.39-6.62-6.76c-1.71,3,4.44,6.19,3,9.35l-7.26-5.23c-.53,3.56,5.23,5.24,5.54,8.84l-5.21-2.43c1.1,2.69,3.65,4.44,5.67,6.54C428,208,428,220.09,432.64,229.8c2.66,5.59,5.51,10.16,6.71,16.27C440.25,250.66,444.2,259.07,448.76,251.74Z" transform="translate(-100.66 -3.59)" fill="url(#linear-gradient-12)"/><circle cx="291.39" cy="299.87" r="7.87" transform="translate(-193.65 131.71) rotate(-22.64)" fill="#68e1fd"/><circle cx="315.57" cy="299.87" r="7.87" transform="translate(-191.78 141.02) rotate(-22.64)" fill="#68e1fd"/><circle cx="339.76" cy="299.87" r="7.87" transform="translate(-189.92 150.33) rotate(-22.64)" fill="#68e1fd"/><circle cx="384.23" cy="429.82" r="7.87" fill="#68e1fd"/><circle cx="408.41" cy="429.82" r="7.87" fill="#68e1fd"/><circle cx="432.59" cy="429.82" r="7.87" fill="#68e1fd"/><circle cx="352.17" cy="161.92" r="7.87" fill="#68e1fd"/><circle cx="376.36" cy="161.92" r="7.87" fill="#68e1fd"/><circle cx="400.54" cy="161.92" r="7.87" fill="#68e1fd"/><path d="M220.45,544.22l1.53,6.94c-9.94,7.21-22.67,8.93-34.63,11.7s-24.64,7.58-30.81,18.19c8.89,11.52,25.45,12.91,40,13.29q176,4.59,352.17,1.26c37.26-.71,74.73-1.7,111.3-8.87,2.62-.51,5.55-1.27,6.86-3.6,2.24-4-2-8.47-5.87-10.81a81.22,81.22,0,0,0-42.51-11.53c-5.62.07-13-.53-14.29-6-.44-1.95.16-4,.09-6-.16-4.95-4.45-9-9.16-10.5s-9.81-1-14.74-.55A1903.34,1903.34,0,0,1,300.82,544c-14.78-.76-29.58-1.68-44.26-3.56C242.78,538.7,232.81,536,220.45,544.22Z" transform="translate(-100.66 -3.59)" opacity="0.19" fill="url(#linear-gradient-13)"/><path d="M359.49,115.38c-1.08,3.76-2.86,7.46-5.87,10a13.55,13.55,0,0,1-22.17-11.71c0-.31,0-.69-.22-.87a1.17,1.17,0,0,0-.72,0c-1.47.15-2.56-1.37-3-2.77a6.18,6.18,0,0,1-.29-3.32,3.18,3.18,0,0,1,2.13-2.39,2.19,2.19,0,0,1,2.66,1.43,13.59,13.59,0,0,1,2-5.86,22,22,0,0,1,4.48-6.2,14.17,14.17,0,0,1,14.47-2.28,16.12,16.12,0,0,1,9.11,9.72c.58,2-.27,3.73-.66,5.68C360.76,109.63,360.31,112.54,359.49,115.38Z" transform="translate(-100.66 -3.59)" fill="url(#linear-gradient-14)"/><path d="M332.71,107.64a.7.7,0,0,1-.51.28c-.39,0-.49-.54-.52-.92a3.62,3.62,0,0,0-.95-2.52,1.73,1.73,0,0,0-2.45,0,18.62,18.62,0,0,1,2.64-12.65,2.75,2.75,0,0,0,.55-1.25c0-.59-.34-1.17-.23-1.75a2.15,2.15,0,0,1,.73-1.06,10.46,10.46,0,0,1,3.67-2.48,4.57,4.57,0,0,1,4.25.48,21.24,21.24,0,0,1,10.51-2.93,16.91,16.91,0,0,1,6.3,1.07,15.77,15.77,0,0,1,8.23,7.87,20.72,20.72,0,0,1,1.71,11.37,13.61,13.61,0,0,1-17.88-6.56,8.25,8.25,0,0,0,.49,4.66A8.72,8.72,0,0,1,344.53,95c-.75-.7-1.89.19-2.51,1-1.6,2.11-3.08,4.59-5,6.4a15.75,15.75,0,0,0-2.39,2.15C333.88,105.53,333.56,106.74,332.71,107.64Z" transform="translate(-100.66 -3.59)" fill="#3f3d56"/><path d="M487.05,262.74c-.35,2.79-2.95,5.19-5.78,5.87a6.09,6.09,0,0,1-2.2.18c-4-.41-5.82-5.35-5.74-9.38s1-8.14-.84-11.57c-.05-.11-.11-.22-.17-.33-1-1.77-2.75-3.09-3.64-4.94a11.36,11.36,0,0,1-.52-6.57c1.19-8.36,7.74-30.45,20.36-22.18,3.27,2.14,5.22,5.84,6.34,9.58C498.82,236.58,490.36,236.36,487.05,262.74Z" transform="translate(-100.66 -3.59)" fill="url(#linear-gradient-15)"/><path d="M483.52,216.52c1.69,1,2.53,3,2.91,5,1.09,5.55-.68,11.21-1.67,16.78s-1,12,2.91,16.1l.09.1A8,8,0,0,0,500.84,252c.19-.43.41-.85.64-1.26,1.52-2.69,3.64-5,5.15-7.7a24,24,0,0,0,2.52-7.27,19.32,19.32,0,0,0,.05-7.87c-1-4.36-4-8-7.14-11.11-3-3-6.33-5.73-10.3-7.11s-8.71-1.16-12,1.43c-1,.8-3.75,4.05-2.32,5.4C478.61,217.58,481.75,215.44,483.52,216.52Z" transform="translate(-100.66 -3.59)" fill="#3f3d56"/><polygon points="202.38 153.13 197.82 150.68 201.11 155.19 201.35 153.13 202.38 153.13" fill="url(#linear-gradient-16)"/><path d="M351.17,159.89a4.57,4.57,0,0,1,4.78-4c4.48-.13,21.86-2.42,21.86-2.42l.67,5.28S363.11,165.25,351.17,159.89Z" transform="translate(-100.66 -3.59)" fill="url(#linear-gradient-17)"/><path d="M376.46,143.66V146s-15.19,4.09-31.22-12.39l-.95-2.83a9.57,9.57,0,0,1,2.52,1.44l1.34,1c2.46,1.75,4.92,3.52,7.38,5.28a37,37,0,0,0,5.43,3.42c6.17,2.92,8.72,2.65,15.5,1.79Z" transform="translate(-100.66 -3.59)" fill="#fff" opacity="0.18" style="isolation:isolate"/><path d="M330.06,130.77S314.27,130,306.77,148c-1.61,3.84-5.57,7.76-5.57,7.76l-2.08-.44c-.24-.36-.46-.7-.64-1,1.09-5,5.9-7.45,8.14-12a28.21,28.21,0,0,1,6.93-9.11,20.52,20.52,0,0,1,3-2.12c3.84-2.23,8.27-3.12,12.69-3.79Z" transform="translate(-100.66 -3.59)" fill="#fff" opacity="0.18" style="isolation:isolate"/><path d="M522,259.85a12.08,12.08,0,0,1-3.29,4.92c-2.79,2.55-6.33,4.15-9.08,6.74-6.1,5.74-7.11,14.91-7.75,23.26l-2.19,28.83H467.92s17.29-35.12,22-44.42,19.11-15.42,19.11-15.42C520.25,255.05,522,259.85,522,259.85Z" transform="translate(-100.66 -3.59)" fill="url(#linear-gradient-18)"/><path d="M481.77,268.12a2.58,2.58,0,0,1-.5.49,6.09,6.09,0,0,1-2.2.18c-4-.41-5.82-5.35-5.74-9.38s1.57-7.92-1.77-13c1.75,1.27,4.07,2.06,9.15,2.39C484.38,249,482.18,267.6,481.77,268.12Z" transform="translate(-100.66 -3.59)" fill="url(#linear-gradient-19)"/></svg>